<mxfile host="app.diagrams.net" modified="2024-05-01T14:27:07.695Z" agent="Mozilla/5.0 (Macintosh; Intel Mac OS X 10.15; rv:126.0) Gecko/20100101 Firefox/126.0" etag="4XXFc_bT3eqAxvCk2rbb" version="24.3.1" type="device">
  <diagram id="R2lEEEUBdFMjLlhIrx00" name="Page-1">
    <mxGraphModel dx="2924" dy="2230" grid="1" gridSize="10" guides="1" tooltips="1" connect="1" arrows="1" fold="1" page="1" pageScale="1" pageWidth="850" pageHeight="1100" math="0" shadow="0" extFonts="Permanent Marker^https://fonts.googleapis.com/css?family=Permanent+Marker">
      <root>
        <mxCell id="0" />
        <mxCell id="1" parent="0" />
        <mxCell id="J6m88mXK0An7eq9i3hAy-2" value="USER" style="swimlane;fontStyle=1;childLayout=stackLayout;horizontal=1;startSize=26;horizontalStack=0;resizeParent=1;resizeParentMax=0;resizeLast=0;collapsible=1;marginBottom=0;align=center;fontSize=14;" parent="1" vertex="1">
          <mxGeometry x="80" y="160" width="160" height="170" as="geometry" />
        </mxCell>
        <mxCell id="J6m88mXK0An7eq9i3hAy-3" value="&lt;div&gt;&lt;b&gt;&lt;u&gt;#&lt;/u&gt;&lt;span style=&quot;white-space: pre;&quot;&gt;&#x9;&lt;/span&gt;&lt;u&gt;user_id&lt;/u&gt;&lt;br&gt;&lt;/b&gt;&lt;/div&gt;&lt;div&gt;*&lt;span style=&quot;white-space: pre;&quot;&gt;&#x9;&lt;/span&gt;username&lt;br&gt;&lt;/div&gt;&lt;div&gt;*&lt;span style=&quot;white-space: pre;&quot;&gt;&#x9;&lt;/span&gt;email&lt;/div&gt;&lt;div&gt;*&lt;span style=&quot;white-space: pre;&quot;&gt;&#x9;&lt;/span&gt;password&lt;/div&gt;&lt;div&gt;*&lt;span style=&quot;white-space: pre;&quot;&gt;&#x9;&lt;/span&gt;firstname&lt;/div&gt;&lt;div&gt;*&lt;span style=&quot;white-space: pre;&quot;&gt;&#x9;&lt;/span&gt;lastname&lt;/div&gt;&lt;div&gt;*&lt;span style=&quot;white-space: pre;&quot;&gt;&#x9;&lt;/span&gt;birthdate&lt;/div&gt;&lt;div&gt;*&lt;span style=&quot;white-space: pre;&quot;&gt;&#x9;&lt;/span&gt;address&lt;/div&gt;&lt;div&gt;*&lt;span style=&quot;white-space: pre;&quot;&gt;&#x9;&lt;/span&gt;created_date&lt;br&gt;&lt;/div&gt;" style="text;strokeColor=none;fillColor=none;spacingLeft=4;spacingRight=4;overflow=hidden;rotatable=0;points=[[0,0.5],[1,0.5]];portConstraint=eastwest;fontSize=12;whiteSpace=wrap;html=1;" parent="J6m88mXK0An7eq9i3hAy-2" vertex="1">
          <mxGeometry y="26" width="160" height="144" as="geometry" />
        </mxCell>
        <mxCell id="edP1ObYVQ5gfrVOTmNrc-14" value="PARKINGSPOT" style="swimlane;fontStyle=1;childLayout=stackLayout;horizontal=1;startSize=26;horizontalStack=0;resizeParent=1;resizeParentMax=0;resizeLast=0;collapsible=1;marginBottom=0;align=center;fontSize=14;" vertex="1" parent="1">
          <mxGeometry x="430" y="165" width="160" height="160" as="geometry" />
        </mxCell>
        <mxCell id="edP1ObYVQ5gfrVOTmNrc-15" value="&lt;div&gt;&lt;b&gt;&lt;u&gt;#&lt;/u&gt;&lt;span style=&quot;white-space: pre;&quot;&gt;&#x9;&lt;/span&gt;&lt;u&gt;parkingspot_id&lt;br&gt;&lt;/u&gt;&lt;/b&gt;&lt;/div&gt;&lt;div&gt;o&lt;span style=&quot;white-space: pre;&quot;&gt;&#x9;name&lt;/span&gt;&lt;/div&gt;&lt;div&gt;&lt;span style=&quot;white-space: pre;&quot;&gt;o&lt;span style=&quot;white-space: pre;&quot;&gt;&#x9;&lt;/span&gt;description&lt;br&gt;&lt;/span&gt;&lt;/div&gt;&lt;div&gt;*&lt;span style=&quot;white-space: pre;&quot;&gt;&#x9;available_spaces&lt;/span&gt;&lt;/div&gt;&lt;div&gt;o&lt;span style=&quot;white-space: pre;&quot;&gt;&#x9;image_url&lt;/span&gt;&lt;/div&gt;&lt;div&gt;&lt;div&gt;*&lt;span style=&quot;white-space: pre;&quot;&gt;&#x9;address&lt;/span&gt;&lt;/div&gt;&lt;div&gt;*&lt;span style=&quot;white-space: pre;&quot;&gt;&#x9;latitude&lt;/span&gt;&lt;/div&gt;&lt;div&gt;*&lt;span style=&quot;white-space: pre;&quot;&gt;&#x9;longitude&lt;/span&gt;&lt;/div&gt;&lt;/div&gt;" style="text;strokeColor=none;fillColor=none;spacingLeft=4;spacingRight=4;overflow=hidden;rotatable=0;points=[[0,0.5],[1,0.5]];portConstraint=eastwest;fontSize=12;whiteSpace=wrap;html=1;" vertex="1" parent="edP1ObYVQ5gfrVOTmNrc-14">
          <mxGeometry y="26" width="160" height="134" as="geometry" />
        </mxCell>
        <mxCell id="edP1ObYVQ5gfrVOTmNrc-20" value="AWARD_TYPE" style="swimlane;fontStyle=1;childLayout=stackLayout;horizontal=1;startSize=26;horizontalStack=0;resizeParent=1;resizeParentMax=0;resizeLast=0;collapsible=1;marginBottom=0;align=center;fontSize=14;" vertex="1" parent="1">
          <mxGeometry x="-520" y="205" width="160" height="80" as="geometry" />
        </mxCell>
        <mxCell id="edP1ObYVQ5gfrVOTmNrc-21" value="&lt;div&gt;&lt;b&gt;&lt;u&gt;#&lt;/u&gt;&lt;span style=&quot;white-space: pre;&quot;&gt;&#x9;&lt;/span&gt;&lt;u&gt;award_id&lt;br&gt;&lt;/u&gt;&lt;/b&gt;&lt;/div&gt;&lt;div&gt;&lt;span style=&quot;white-space: pre;&quot;&gt;*&lt;span style=&quot;white-space: pre;&quot;&gt;&#x9;&lt;/span&gt;title&lt;br&gt;&lt;/span&gt;&lt;/div&gt;&lt;div&gt;&lt;span style=&quot;white-space: pre;&quot;&gt;* &lt;span style=&quot;white-space: pre;&quot;&gt;&#x9;&lt;/span&gt;points&lt;br&gt;&lt;/span&gt;&lt;/div&gt;" style="text;strokeColor=none;fillColor=none;spacingLeft=4;spacingRight=4;overflow=hidden;rotatable=0;points=[[0,0.5],[1,0.5]];portConstraint=eastwest;fontSize=12;whiteSpace=wrap;html=1;" vertex="1" parent="edP1ObYVQ5gfrVOTmNrc-20">
          <mxGeometry y="26" width="160" height="54" as="geometry" />
        </mxCell>
        <mxCell id="edP1ObYVQ5gfrVOTmNrc-22" value="PRIVATEPARKINGSPOT" style="swimlane;fontStyle=1;childLayout=stackLayout;horizontal=1;startSize=26;horizontalStack=0;resizeParent=1;resizeParentMax=0;resizeLast=0;collapsible=1;marginBottom=0;align=center;fontSize=14;" vertex="1" parent="1">
          <mxGeometry x="240" y="-65" width="210" height="100" as="geometry" />
        </mxCell>
        <mxCell id="edP1ObYVQ5gfrVOTmNrc-23" value="&lt;div&gt;&lt;b&gt;&lt;u&gt;#&lt;/u&gt;&lt;span style=&quot;white-space: pre;&quot;&gt;&#x9;&lt;/span&gt;&lt;u&gt;private_parkingspot_id&lt;br&gt;&lt;/u&gt;&lt;/b&gt;&lt;/div&gt;&lt;div&gt;*&lt;span style=&quot;white-space: pre;&quot;&gt;&#x9;avail&lt;/span&gt;ability_start_date&lt;br&gt;&lt;/div&gt;&lt;div&gt;*&lt;span style=&quot;white-space: pre;&quot;&gt;&#x9;&lt;/span&gt;&lt;span style=&quot;white-space: pre;&quot;&gt;avail&lt;/span&gt;ability_end_date&lt;/div&gt;&lt;div&gt;*&lt;span style=&quot;white-space: pre;&quot;&gt;&#x9;price_per_hour&lt;/span&gt;&lt;/div&gt;" style="text;strokeColor=none;fillColor=none;spacingLeft=4;spacingRight=4;overflow=hidden;rotatable=0;points=[[0,0.5],[1,0.5]];portConstraint=eastwest;fontSize=12;whiteSpace=wrap;html=1;" vertex="1" parent="edP1ObYVQ5gfrVOTmNrc-22">
          <mxGeometry y="26" width="210" height="74" as="geometry" />
        </mxCell>
        <mxCell id="edP1ObYVQ5gfrVOTmNrc-70" style="edgeStyle=orthogonalEdgeStyle;rounded=0;orthogonalLoop=1;jettySize=auto;html=1;exitX=0.5;exitY=1;exitDx=0;exitDy=0;startArrow=ERzeroToMany;startFill=0;endArrow=ERone;endFill=0;" edge="1" parent="1" source="edP1ObYVQ5gfrVOTmNrc-24" target="J6m88mXK0An7eq9i3hAy-2">
          <mxGeometry relative="1" as="geometry" />
        </mxCell>
        <mxCell id="edP1ObYVQ5gfrVOTmNrc-24" value="BOOKING" style="swimlane;fontStyle=1;childLayout=stackLayout;horizontal=1;startSize=26;horizontalStack=0;resizeParent=1;resizeParentMax=0;resizeLast=0;collapsible=1;marginBottom=0;align=center;fontSize=14;" vertex="1" parent="1">
          <mxGeometry x="-60" y="-70" width="160" height="110" as="geometry" />
        </mxCell>
        <mxCell id="edP1ObYVQ5gfrVOTmNrc-25" value="&lt;div&gt;&lt;b&gt;&lt;u&gt;#&lt;/u&gt;&lt;span style=&quot;white-space: pre;&quot;&gt;&#x9;&lt;/span&gt;&lt;u&gt;booking_id&lt;br&gt;&lt;/u&gt;&lt;/b&gt;&lt;/div&gt;&lt;div&gt;*&lt;span style=&quot;white-space: pre;&quot;&gt;&#x9;date&lt;/span&gt;&lt;/div&gt;&lt;div&gt;&lt;span style=&quot;white-space: pre;&quot;&gt;*&lt;span style=&quot;white-space: pre;&quot;&gt;&#x9;status&lt;/span&gt;&lt;br&gt;&lt;/span&gt;&lt;/div&gt;&lt;div&gt;&lt;span style=&quot;white-space: pre;&quot;&gt;*&lt;span style=&quot;white-space: pre;&quot;&gt;&#x9;&lt;/span&gt;start_date&lt;/span&gt;&lt;/div&gt;&lt;div&gt;&lt;span style=&quot;white-space: pre;&quot;&gt;*&lt;span style=&quot;white-space: pre;&quot;&gt;&#x9;&lt;/span&gt;end_date&lt;br&gt;&lt;/span&gt;&lt;/div&gt;" style="text;strokeColor=none;fillColor=none;spacingLeft=4;spacingRight=4;overflow=hidden;rotatable=0;points=[[0,0.5],[1,0.5]];portConstraint=eastwest;fontSize=12;whiteSpace=wrap;html=1;" vertex="1" parent="edP1ObYVQ5gfrVOTmNrc-24">
          <mxGeometry y="26" width="160" height="84" as="geometry" />
        </mxCell>
        <mxCell id="edP1ObYVQ5gfrVOTmNrc-34" value="" style="edgeStyle=entityRelationEdgeStyle;fontSize=12;html=1;endArrow=ERoneToMany;startArrow=ERzeroToOne;rounded=0;exitX=1;exitY=0.5;exitDx=0;exitDy=0;entryX=0;entryY=0.5;entryDx=0;entryDy=0;" edge="1" parent="1" source="J6m88mXK0An7eq9i3hAy-3" target="edP1ObYVQ5gfrVOTmNrc-15">
          <mxGeometry width="100" height="100" relative="1" as="geometry">
            <mxPoint x="280" y="280" as="sourcePoint" />
            <mxPoint x="380" y="258" as="targetPoint" />
          </mxGeometry>
        </mxCell>
        <mxCell id="edP1ObYVQ5gfrVOTmNrc-35" value="kann anlegen" style="text;html=1;align=center;verticalAlign=middle;whiteSpace=wrap;rounded=0;" vertex="1" parent="1">
          <mxGeometry x="250" y="224" width="60" height="30" as="geometry" />
        </mxCell>
        <mxCell id="edP1ObYVQ5gfrVOTmNrc-36" value="wird angelegt von" style="text;html=1;align=center;verticalAlign=middle;whiteSpace=wrap;rounded=0;" vertex="1" parent="1">
          <mxGeometry x="350" y="265" width="75" height="30" as="geometry" />
        </mxCell>
        <mxCell id="edP1ObYVQ5gfrVOTmNrc-16" value="REVIEW" style="swimlane;fontStyle=1;childLayout=stackLayout;horizontal=1;startSize=26;horizontalStack=0;resizeParent=1;resizeParentMax=0;resizeLast=0;collapsible=1;marginBottom=0;align=center;fontSize=14;" vertex="1" parent="1">
          <mxGeometry x="300" y="470" width="160" height="80" as="geometry" />
        </mxCell>
        <mxCell id="edP1ObYVQ5gfrVOTmNrc-17" value="&lt;div&gt;&lt;b&gt;&lt;u&gt;#&lt;/u&gt;&lt;span style=&quot;white-space: pre;&quot;&gt;&#x9;&lt;/span&gt;&lt;u&gt;review_id&lt;br&gt;&lt;/u&gt;&lt;/b&gt;&lt;/div&gt;&lt;div&gt;*&lt;span style=&quot;white-space: pre;&quot;&gt;&#x9;&lt;/span&gt;&lt;span style=&quot;white-space: pre;&quot;&gt;rating&lt;/span&gt;&lt;/div&gt;&lt;div&gt;&lt;span style=&quot;white-space: pre;&quot;&gt;*&lt;span style=&quot;white-space: pre;&quot;&gt;&#x9;&lt;/span&gt;&lt;/span&gt;&lt;span style=&quot;white-space: pre;&quot;&gt;text&lt;/span&gt;&lt;/div&gt;" style="text;strokeColor=none;fillColor=none;spacingLeft=4;spacingRight=4;overflow=hidden;rotatable=0;points=[[0,0.5],[1,0.5]];portConstraint=eastwest;fontSize=12;whiteSpace=wrap;html=1;" vertex="1" parent="edP1ObYVQ5gfrVOTmNrc-16">
          <mxGeometry y="26" width="160" height="54" as="geometry" />
        </mxCell>
        <mxCell id="edP1ObYVQ5gfrVOTmNrc-43" value="" style="edgeStyle=entityRelationEdgeStyle;fontSize=12;html=1;endArrow=ERoneToMany;startArrow=ERzeroToOne;rounded=0;" edge="1" parent="1">
          <mxGeometry width="100" height="100" relative="1" as="geometry">
            <mxPoint x="240" y="310" as="sourcePoint" />
            <mxPoint x="300" y="500" as="targetPoint" />
            <Array as="points">
              <mxPoint x="250" y="360" />
            </Array>
          </mxGeometry>
        </mxCell>
        <mxCell id="edP1ObYVQ5gfrVOTmNrc-44" value="kann erstellen" style="text;html=1;align=center;verticalAlign=middle;whiteSpace=wrap;rounded=0;" vertex="1" parent="1">
          <mxGeometry x="210" y="340" width="60" height="30" as="geometry" />
        </mxCell>
        <mxCell id="edP1ObYVQ5gfrVOTmNrc-45" value="wird erstellt von" style="text;html=1;align=center;verticalAlign=middle;whiteSpace=wrap;rounded=0;" vertex="1" parent="1">
          <mxGeometry x="270" y="430" width="75" height="30" as="geometry" />
        </mxCell>
        <mxCell id="edP1ObYVQ5gfrVOTmNrc-50" value="gehört zu" style="text;html=1;align=center;verticalAlign=middle;whiteSpace=wrap;rounded=0;" vertex="1" parent="1">
          <mxGeometry x="465" y="470" width="75" height="30" as="geometry" />
        </mxCell>
        <mxCell id="edP1ObYVQ5gfrVOTmNrc-51" value="kann haben" style="text;html=1;align=center;verticalAlign=middle;whiteSpace=wrap;rounded=0;" vertex="1" parent="1">
          <mxGeometry x="620" y="260" width="75" height="30" as="geometry" />
        </mxCell>
        <mxCell id="edP1ObYVQ5gfrVOTmNrc-54" value="" style="edgeStyle=entityRelationEdgeStyle;fontSize=12;html=1;endArrow=ERoneToMany;startArrow=ERzeroToOne;rounded=0;entryX=1;entryY=0.5;entryDx=0;entryDy=0;" edge="1" parent="1" source="edP1ObYVQ5gfrVOTmNrc-15" target="edP1ObYVQ5gfrVOTmNrc-16">
          <mxGeometry width="100" height="100" relative="1" as="geometry">
            <mxPoint x="520" y="340" as="sourcePoint" />
            <mxPoint x="470" y="450" as="targetPoint" />
            <Array as="points">
              <mxPoint x="580" y="370" />
              <mxPoint x="540" y="510" />
            </Array>
          </mxGeometry>
        </mxCell>
        <mxCell id="edP1ObYVQ5gfrVOTmNrc-55" style="edgeStyle=orthogonalEdgeStyle;rounded=0;orthogonalLoop=1;jettySize=auto;html=1;entryX=0.5;entryY=0;entryDx=0;entryDy=0;endArrow=ERzeroToOne;endFill=0;startArrow=ERone;startFill=0;" edge="1" parent="1" source="edP1ObYVQ5gfrVOTmNrc-23" target="edP1ObYVQ5gfrVOTmNrc-14">
          <mxGeometry relative="1" as="geometry" />
        </mxCell>
        <mxCell id="edP1ObYVQ5gfrVOTmNrc-57" value="kann sein" style="text;html=1;align=center;verticalAlign=middle;whiteSpace=wrap;rounded=0;" vertex="1" parent="1">
          <mxGeometry x="515" y="130" width="75" height="30" as="geometry" />
        </mxCell>
        <mxCell id="edP1ObYVQ5gfrVOTmNrc-58" value="muss sein" style="text;html=1;align=center;verticalAlign=middle;whiteSpace=wrap;rounded=0;" vertex="1" parent="1">
          <mxGeometry x="445" y="-30" width="75" height="30" as="geometry" />
        </mxCell>
        <mxCell id="edP1ObYVQ5gfrVOTmNrc-64" style="edgeStyle=orthogonalEdgeStyle;rounded=0;orthogonalLoop=1;jettySize=auto;html=1;entryX=1;entryY=0.5;entryDx=0;entryDy=0;endArrow=ERzeroToOne;endFill=0;startArrow=ERmany;startFill=0;" edge="1" parent="1" source="edP1ObYVQ5gfrVOTmNrc-60" target="edP1ObYVQ5gfrVOTmNrc-21">
          <mxGeometry relative="1" as="geometry" />
        </mxCell>
        <mxCell id="edP1ObYVQ5gfrVOTmNrc-60" value="USER_AWARD" style="swimlane;fontStyle=1;childLayout=stackLayout;horizontal=1;startSize=26;horizontalStack=0;resizeParent=1;resizeParentMax=0;resizeLast=0;collapsible=1;marginBottom=0;align=center;fontSize=14;" vertex="1" parent="1">
          <mxGeometry x="-220" y="233" width="160" height="50" as="geometry" />
        </mxCell>
        <mxCell id="edP1ObYVQ5gfrVOTmNrc-62" style="edgeStyle=orthogonalEdgeStyle;rounded=0;orthogonalLoop=1;jettySize=auto;html=1;exitX=0;exitY=0.5;exitDx=0;exitDy=0;entryX=1;entryY=0.5;entryDx=0;entryDy=0;endArrow=ERoneToMany;endFill=0;startArrow=ERzeroToOne;startFill=0;" edge="1" parent="1" source="J6m88mXK0An7eq9i3hAy-3" target="edP1ObYVQ5gfrVOTmNrc-60">
          <mxGeometry relative="1" as="geometry" />
        </mxCell>
        <mxCell id="edP1ObYVQ5gfrVOTmNrc-65" value="kann erhalten" style="text;html=1;align=center;verticalAlign=middle;whiteSpace=wrap;rounded=0;" vertex="1" parent="1">
          <mxGeometry x="10" y="265" width="60" height="30" as="geometry" />
        </mxCell>
        <mxCell id="edP1ObYVQ5gfrVOTmNrc-66" value="muss gehören zu" style="text;html=1;align=center;verticalAlign=middle;whiteSpace=wrap;rounded=0;" vertex="1" parent="1">
          <mxGeometry x="-50" y="220" width="70" height="30" as="geometry" />
        </mxCell>
        <mxCell id="edP1ObYVQ5gfrVOTmNrc-67" value="ist vom Typ" style="text;html=1;align=center;verticalAlign=middle;whiteSpace=wrap;rounded=0;" vertex="1" parent="1">
          <mxGeometry x="-290" y="260" width="70" height="30" as="geometry" />
        </mxCell>
        <mxCell id="edP1ObYVQ5gfrVOTmNrc-68" value="kann sein" style="text;html=1;align=center;verticalAlign=middle;whiteSpace=wrap;rounded=0;" vertex="1" parent="1">
          <mxGeometry x="-360" y="220" width="70" height="30" as="geometry" />
        </mxCell>
        <mxCell id="edP1ObYVQ5gfrVOTmNrc-69" style="edgeStyle=orthogonalEdgeStyle;rounded=0;orthogonalLoop=1;jettySize=auto;html=1;entryX=0;entryY=0.5;entryDx=0;entryDy=0;endArrow=ERzeroToOne;endFill=0;startArrow=ERmany;startFill=0;" edge="1" parent="1" source="edP1ObYVQ5gfrVOTmNrc-25" target="edP1ObYVQ5gfrVOTmNrc-23">
          <mxGeometry relative="1" as="geometry" />
        </mxCell>
        <mxCell id="edP1ObYVQ5gfrVOTmNrc-71" value="PAYMENT" style="swimlane;fontStyle=1;childLayout=stackLayout;horizontal=1;startSize=26;horizontalStack=0;resizeParent=1;resizeParentMax=0;resizeLast=0;collapsible=1;marginBottom=0;align=center;fontSize=14;" vertex="1" parent="1">
          <mxGeometry x="-360" y="-65" width="160" height="100" as="geometry" />
        </mxCell>
        <mxCell id="edP1ObYVQ5gfrVOTmNrc-72" value="&lt;div&gt;&lt;b&gt;&lt;u&gt;#&lt;/u&gt;&lt;span style=&quot;white-space: pre;&quot;&gt;&#x9;&lt;/span&gt;&lt;u&gt;payment_id&lt;br&gt;&lt;/u&gt;&lt;/b&gt;&lt;/div&gt;&lt;div&gt;*&lt;span style=&quot;white-space: pre;&quot;&gt;&#x9;amount&lt;/span&gt;&lt;/div&gt;&lt;div&gt;&lt;span style=&quot;white-space: pre;&quot;&gt;*&lt;span style=&quot;white-space: pre;&quot;&gt;&#x9;timestamp&lt;/span&gt;&lt;br&gt;&lt;/span&gt;&lt;/div&gt;&lt;div&gt;&lt;span style=&quot;white-space: pre;&quot;&gt;*&lt;span style=&quot;white-space: pre;&quot;&gt;&#x9;payment_method&lt;/span&gt;&lt;/span&gt;&lt;/div&gt;" style="text;strokeColor=none;fillColor=none;spacingLeft=4;spacingRight=4;overflow=hidden;rotatable=0;points=[[0,0.5],[1,0.5]];portConstraint=eastwest;fontSize=12;whiteSpace=wrap;html=1;" vertex="1" parent="edP1ObYVQ5gfrVOTmNrc-71">
          <mxGeometry y="26" width="160" height="74" as="geometry" />
        </mxCell>
        <mxCell id="edP1ObYVQ5gfrVOTmNrc-73" style="edgeStyle=orthogonalEdgeStyle;rounded=0;orthogonalLoop=1;jettySize=auto;html=1;entryX=0;entryY=0.5;entryDx=0;entryDy=0;startArrow=ERzeroToOne;startFill=0;endArrow=ERone;endFill=0;" edge="1" parent="1" source="edP1ObYVQ5gfrVOTmNrc-72" target="edP1ObYVQ5gfrVOTmNrc-25">
          <mxGeometry relative="1" as="geometry" />
        </mxCell>
        <mxCell id="edP1ObYVQ5gfrVOTmNrc-76" value="kann erhalten" style="text;html=1;align=center;verticalAlign=middle;whiteSpace=wrap;rounded=0;" vertex="1" parent="1">
          <mxGeometry x="180" y="-40" width="60" height="30" as="geometry" />
        </mxCell>
        <mxCell id="edP1ObYVQ5gfrVOTmNrc-77" value="gehören zu" style="text;html=1;align=center;verticalAlign=middle;whiteSpace=wrap;rounded=0;" vertex="1" parent="1">
          <mxGeometry x="100" y="5" width="60" height="30" as="geometry" />
        </mxCell>
        <mxCell id="edP1ObYVQ5gfrVOTmNrc-78" value="kann haben" style="text;html=1;align=center;verticalAlign=middle;whiteSpace=wrap;rounded=0;" vertex="1" parent="1">
          <mxGeometry x="160" y="126" width="60" height="30" as="geometry" />
        </mxCell>
        <mxCell id="edP1ObYVQ5gfrVOTmNrc-79" value="wurde ausgelöst durch" style="text;html=1;align=center;verticalAlign=middle;whiteSpace=wrap;rounded=0;" vertex="1" parent="1">
          <mxGeometry x="20" y="50" width="60" height="30" as="geometry" />
        </mxCell>
        <mxCell id="edP1ObYVQ5gfrVOTmNrc-80" value="muss begleichen" style="text;html=1;align=center;verticalAlign=middle;whiteSpace=wrap;rounded=0;" vertex="1" parent="1">
          <mxGeometry x="-194" y="10" width="60" height="30" as="geometry" />
        </mxCell>
        <mxCell id="edP1ObYVQ5gfrVOTmNrc-81" value="wird beglichen durch" style="text;html=1;align=center;verticalAlign=middle;whiteSpace=wrap;rounded=0;" vertex="1" parent="1">
          <mxGeometry x="-123" y="-40" width="60" height="30" as="geometry" />
        </mxCell>
      </root>
    </mxGraphModel>
  </diagram>
</mxfile>
